<svg width="166" height="166" viewBox="0 0 166 166" fill="none" xmlns="http://www.w3.org/2000/svg">
    <rect width="166" height="166" fill="#ffffff"/>
    <path fill-rule="evenodd" clip-rule="evenodd" d="M77.5 10H41.5L23.8767 41H43.4998L51.4998 27H65.4998V37H56.9998L48.9998 51H18.1918L0 83L6.25342 94H36L43 107H66V117H37.5L30 104H12L10.826 102.043L41.5 156H77.5V141H52.5L47 131H77.5V92H53L44 77H22L27.5 67H50.5L59 82H77.5V62H58L63.5 52H77.5V10Z" fill="#323232" fill-opacity="0.79"/>
    <path fill-rule="evenodd" clip-rule="evenodd" d="M88.5 10H124.5L142.123 41H122.5L114.5 27H100.5V37H109L117 51H147.808L166 83L159.747 94H130L123 107H100V117H128.5L136 104H154L155.174 102.043L124.5 156H88.5V141H113.5L119 131H88.5V92H113L122 77H144L138.5 67H115.5L107 82H88.5V62H108L102.5 52H88.5V10Z" fill="#323232" fill-opacity="0.79"/>
</svg>
